<svg width="264" height="264" viewBox="0 0 264 264" fill="none" xmlns="http://www.w3.org/2000/svg">
<g clip-path="url(#clip0_242_2123)">
<circle cx="131.959" cy="131.959" r="131.959" fill="#0C0760"/>
<circle cx="132" cy="132" r="131.065" transform="rotate(90 132 132)" fill="url(#paint0_radial_242_2123)" stroke="url(#paint1_radial_242_2123)" stroke-width="1.86975"/>
<path d="M69.7474 75.9011C69.8673 75.5568 70.3542 75.5568 70.4741 75.9011L72.8287 82.6614C72.8816 82.8133 73.0234 82.9162 73.1842 82.9195L80.3525 83.0653C80.7174 83.0727 80.8679 83.5366 80.5769 83.7568L74.8647 88.0788C74.7362 88.176 74.6819 88.343 74.7286 88.4972L76.8047 95.3455C76.9105 95.6945 76.5165 95.9812 76.217 95.7731L70.3302 91.685C70.1982 91.5933 70.0232 91.5933 69.8913 91.685L64.0045 95.7731C63.7049 95.9812 63.311 95.6945 63.4168 95.3455L65.4928 88.4972C65.5396 88.343 65.4853 88.176 65.3568 88.0788L59.6446 83.7568C59.3536 83.5366 59.504 83.0727 59.869 83.0653L67.0373 82.9195C67.1981 82.9162 67.3399 82.8133 67.3928 82.6614L69.7474 75.9011Z" fill="#CDB37E"/>
<path d="M100.528 75.9011C100.648 75.5568 101.134 75.5568 101.254 75.9011L103.609 82.6614C103.662 82.8133 103.804 82.9162 103.964 82.9195L111.133 83.0653C111.498 83.0727 111.648 83.5366 111.357 83.7568L105.645 88.0788C105.516 88.176 105.462 88.343 105.509 88.4972L107.585 95.3455C107.691 95.6945 107.297 95.9812 106.997 95.7731L101.11 91.685C100.979 91.5933 100.804 91.5933 100.672 91.685L94.7848 95.7731C94.4852 95.9812 94.0913 95.6945 94.1971 95.3455L96.2731 88.4972C96.3199 88.343 96.2656 88.176 96.1371 88.0788L90.4249 83.7568C90.1338 83.5366 90.2843 83.0727 90.6492 83.0653L97.8176 82.9195C97.9784 82.9162 98.1202 82.8133 98.1731 82.6614L100.528 75.9011Z" fill="#CDB37E"/>
<path d="M131.308 75.9011C131.428 75.5568 131.915 75.5568 132.035 75.9011L134.389 82.6614C134.442 82.8133 134.584 82.9162 134.745 82.9195L141.913 83.0653C142.278 83.0727 142.428 83.5366 142.137 83.7568L136.425 88.0788C136.297 88.176 136.242 88.343 136.289 88.4972L138.365 95.3455C138.471 95.6945 138.077 95.9812 137.778 95.7731L131.891 91.685C131.759 91.5933 131.584 91.5933 131.452 91.685L125.565 95.7731C125.265 95.9812 124.872 95.6945 124.977 95.3455L127.053 88.4972C127.1 88.343 127.046 88.176 126.917 88.0788L121.205 83.7568C120.914 83.5366 121.065 83.0727 121.43 83.0653L128.598 82.9195C128.759 82.9162 128.9 82.8133 128.953 82.6614L131.308 75.9011Z" fill="#CDB37E"/>
<path d="M162.088 75.9011C162.208 75.5568 162.695 75.5568 162.815 75.9011L165.169 82.6614C165.222 82.8133 165.364 82.9162 165.525 82.9195L172.693 83.0653C173.058 83.0727 173.209 83.5366 172.918 83.7568L167.205 88.0788C167.077 88.176 167.023 88.343 167.069 88.4972L169.145 95.3455C169.251 95.6945 168.857 95.9812 168.558 95.7731L162.671 91.685C162.539 91.5933 162.364 91.5933 162.232 91.685L156.345 95.7731C156.046 95.9812 155.652 95.6945 155.758 95.3455L157.834 88.4972C157.88 88.343 157.826 88.176 157.697 88.0788L151.985 83.7568C151.694 83.5366 151.845 83.0727 152.21 83.0653L159.378 82.9195C159.539 82.9162 159.681 82.8133 159.734 82.6614L162.088 75.9011Z" fill="#CDB37E"/>
<path d="M192.868 75.9011C192.988 75.5568 193.475 75.5568 193.595 75.9011L195.95 82.6614C196.003 82.8133 196.144 82.9162 196.305 82.9195L203.474 83.0653C203.839 83.0727 203.989 83.5366 203.698 83.7568L197.986 88.0788C197.857 88.176 197.803 88.343 197.85 88.4972L199.926 95.3455C200.032 95.6945 199.638 95.9812 199.338 95.7731L193.451 91.685C193.319 91.5933 193.144 91.5933 193.012 91.685L187.126 95.7731C186.826 95.9812 186.432 95.6945 186.538 95.3455L188.614 88.4972C188.661 88.343 188.606 88.176 188.478 88.0788L182.766 83.7568C182.475 83.5366 182.625 83.0727 182.99 83.0653L190.158 82.9195C190.319 82.9162 190.461 82.8133 190.514 82.6614L192.868 75.9011Z" fill="#CDB37E"/>
<path d="M221.913 151.169H217.145V149.968C215.749 151.105 214.043 151.673 212.027 151.673C209.132 151.673 206.716 150.614 204.777 148.494C203.097 146.659 202.257 144.501 202.257 142.02C202.257 139.151 203.33 136.773 205.475 134.886C207.31 133.232 209.494 132.405 212.027 132.405C213.991 132.405 215.697 132.974 217.145 134.111V122.48H221.913V151.169ZM217.145 142.02C217.145 140.547 216.576 139.306 215.439 138.298C214.457 137.419 213.319 136.98 212.027 136.98C210.528 136.98 209.274 137.548 208.266 138.686C207.388 139.642 206.948 140.753 206.948 142.02C206.948 143.493 207.504 144.747 208.615 145.78C209.597 146.659 210.735 147.099 212.027 147.099C213.526 147.099 214.793 146.53 215.826 145.393C216.705 144.436 217.145 143.312 217.145 142.02Z" fill="white"/>
<path d="M199.06 143.532H185.026C185.336 144.773 185.969 145.742 186.926 146.44C187.83 147.06 188.903 147.37 190.143 147.37C192.134 147.37 193.646 146.685 194.679 145.316L197.936 147.913C197.057 149.18 195.855 150.149 194.331 150.821C193.038 151.389 191.655 151.674 190.182 151.674C187.21 151.674 184.767 150.64 182.855 148.572C181.201 146.789 180.374 144.644 180.374 142.136C180.374 139.242 181.343 136.851 183.281 134.964C185.039 133.258 187.249 132.405 189.911 132.405C192.754 132.405 195.08 133.478 196.889 135.623C198.414 137.432 199.177 139.565 199.177 142.02C199.177 142.589 199.138 143.093 199.06 143.532ZM185.181 140.043H194.369C194.214 139.061 193.659 138.247 192.702 137.6C191.875 137.032 190.932 136.747 189.872 136.747C188.787 136.747 187.817 137.045 186.964 137.639C186.137 138.234 185.543 139.035 185.181 140.043Z" fill="white"/>
<path d="M172.778 137.329V151.17H168.01V137.329H165.102V132.755H168.01V126.513H172.778V132.755H177.663V137.329H172.778Z" fill="white"/>
<path d="M161.412 151.17H156.643V149.968C155.247 151.105 153.541 151.674 151.525 151.674C148.63 151.674 146.214 150.614 144.275 148.495C142.595 146.66 141.755 144.501 141.755 142.02C141.755 139.151 142.828 136.773 144.973 134.887C146.808 133.232 148.992 132.405 151.525 132.405C153.49 132.405 155.195 132.974 156.643 134.111V132.754H161.412V151.17ZM156.643 142.02C156.643 140.547 156.074 139.306 154.937 138.298C153.955 137.419 152.818 136.98 151.525 136.98C150.026 136.98 148.773 137.549 147.765 138.686C146.886 139.642 146.446 140.754 146.446 142.02C146.446 143.493 147.002 144.747 148.114 145.781C149.096 146.66 150.233 147.099 151.525 147.099C153.024 147.099 154.291 146.53 155.325 145.393C156.203 144.437 156.643 143.312 156.643 142.02Z" fill="white"/>
<path d="M140.172 151.169H134.473L127.533 139.267H124.083V151.169H119.004V122.48H130.635C133.685 122.48 136.011 123.346 137.613 125.078C138.983 126.551 139.668 128.489 139.668 130.893C139.668 133.219 139.022 135.106 137.73 136.553C136.592 137.846 135.029 138.66 133.038 138.996L140.172 151.169ZM124.083 134.382H130.712C131.979 134.382 132.961 134.033 133.659 133.335C134.279 132.741 134.589 131.94 134.589 130.932C134.589 129.743 134.189 128.825 133.387 128.179C132.715 127.636 131.824 127.365 130.712 127.365H124.083V134.382Z" fill="white"/>
<path d="M89.2013 160.978H84.4326V132.754H89.2013V134.111C90.597 132.974 92.3028 132.405 94.3188 132.405C97.2395 132.405 99.6561 133.465 101.569 135.584C103.249 137.394 104.089 139.539 104.089 142.02C104.089 144.889 103.016 147.28 100.871 149.192C99.01 150.847 96.8259 151.674 94.3188 151.674C92.3028 151.674 90.597 151.105 89.2013 149.968V160.978ZM89.2013 141.826V142.253C89.253 143.674 89.8345 144.863 90.9459 145.82C91.9281 146.672 93.0524 147.099 94.3188 147.099C95.8179 147.099 97.0715 146.53 98.0795 145.393C98.9583 144.437 99.3976 143.312 99.3976 142.02C99.3976 140.573 98.829 139.332 97.6918 138.298C96.7355 137.419 95.6112 136.98 94.3188 136.98C92.8456 136.98 91.605 137.523 90.597 138.608C89.7182 139.539 89.253 140.611 89.2013 141.826Z" fill="white"/>
<path d="M80.1605 142.02C80.1605 144.889 79.0879 147.28 76.9426 149.192C75.0817 150.847 72.8848 151.674 70.3518 151.674C67.457 151.674 65.0404 150.614 63.1019 148.495C61.4219 146.66 60.5819 144.501 60.5819 142.02C60.5819 139.151 61.6545 136.773 63.7998 134.887C65.6349 133.232 67.8189 132.405 70.3518 132.405C73.2725 132.405 75.702 133.465 77.6405 135.584C79.3205 137.394 80.1605 139.539 80.1605 142.02ZM75.4694 142.02C75.4694 140.547 74.9008 139.306 73.7635 138.298C72.7814 137.419 71.6441 136.98 70.3518 136.98C68.8527 136.98 67.5992 137.549 66.5912 138.686C65.7124 139.642 65.273 140.754 65.273 142.02C65.273 143.493 65.8287 144.747 66.9401 145.781C67.9223 146.66 69.0595 147.099 70.3518 147.099C71.8509 147.099 73.1174 146.53 74.1512 145.393C75.03 144.437 75.4694 143.312 75.4694 142.02Z" fill="white"/>
<path d="M55.2666 151.169H50.1878V127.365H40.9607V122.48H64.455V127.365H55.2666V151.169Z" fill="white"/>
<path d="M160.389 192.53C161.656 192.53 162.682 192.148 163.468 191.384C164.254 190.619 164.648 189.539 164.648 188.141C164.648 186.569 164.123 185.401 163.075 184.636C162.202 184.003 161.001 183.686 159.472 183.686V180.607H160.619C161.776 180.607 162.693 180.214 163.37 179.428C163.938 178.773 164.222 177.965 164.222 177.004C164.222 175.891 163.851 174.996 163.108 174.319C162.475 173.729 161.667 173.434 160.684 173.434C159.483 173.434 158.555 173.904 157.9 174.843C157.398 175.563 157.136 176.469 157.114 177.561H153.806C153.871 175.356 154.57 173.598 155.902 172.288C157.147 171.087 158.763 170.486 160.75 170.486C162.933 170.486 164.669 171.185 165.958 172.583C167.006 173.762 167.53 175.214 167.53 176.939C167.53 178.184 167.235 179.265 166.646 180.182C166.122 181.033 165.401 181.688 164.484 182.147C166.908 183.239 168.12 185.182 168.12 187.977C168.12 190.401 167.29 192.323 165.63 193.742C164.233 194.965 162.497 195.576 160.422 195.576C158.064 195.576 156.164 194.779 154.723 193.185C153.522 191.831 152.878 190.15 152.79 188.141H156.131C156.219 189.604 156.688 190.729 157.54 191.515C158.282 192.192 159.232 192.53 160.389 192.53Z" fill="white"/>
<path d="M148.436 195.151H133.631V191.973L140.706 184.931C142.431 183.206 143.621 181.819 144.276 180.771C144.953 179.701 145.292 178.631 145.292 177.561C145.292 176.229 144.866 175.159 144.014 174.351C143.294 173.653 142.355 173.303 141.197 173.303C139.953 173.303 138.97 173.718 138.249 174.548C137.594 175.268 137.169 176.262 136.972 177.529H133.729C133.991 175.127 134.854 173.314 136.317 172.091C137.583 171.021 139.221 170.486 141.23 170.486C143.567 170.486 145.423 171.163 146.798 172.517C148.043 173.74 148.665 175.345 148.665 177.332C148.665 178.751 148.316 180.127 147.617 181.459C146.94 182.791 145.849 184.21 144.342 185.717L138.053 192.006H148.436V195.151Z" fill="white"/>
<path d="M130.026 179.232V186.307C130.026 189.167 129.339 191.427 127.963 193.087C126.609 194.747 124.698 195.576 122.231 195.576C119.479 195.576 117.427 194.561 116.073 192.53C114.981 190.914 114.435 188.84 114.435 186.307V179.232C114.435 176.568 115.178 174.428 116.662 172.812C118.06 171.262 119.916 170.486 122.231 170.486C124.807 170.486 126.816 171.436 128.258 173.336C129.437 174.908 130.026 176.873 130.026 179.232ZM126.718 186.077V179.69C126.718 177.791 126.347 176.306 125.604 175.236C124.84 174.122 123.716 173.565 122.231 173.565C120.571 173.565 119.359 174.242 118.595 175.596C118.005 176.644 117.711 178.009 117.711 179.69V186.077C117.711 188.174 118.049 189.746 118.726 190.794C119.447 191.951 120.615 192.53 122.231 192.53C124 192.53 125.233 191.831 125.932 190.434C126.456 189.408 126.718 187.955 126.718 186.077Z" fill="white"/>
<path d="M110.212 195.151H95.4067V191.973L102.482 184.931C104.207 183.206 105.397 181.819 106.052 180.771C106.729 179.701 107.067 178.631 107.067 177.561C107.067 176.229 106.642 175.159 105.79 174.351C105.069 173.653 104.13 173.303 102.973 173.303C101.728 173.303 100.746 173.718 100.025 174.548C99.37 175.268 98.9442 176.262 98.7477 177.529H95.505C95.767 175.127 96.6296 173.314 98.0926 172.091C99.3591 171.021 100.997 170.486 103.006 170.486C105.342 170.486 107.198 171.163 108.574 172.517C109.819 173.74 110.441 175.345 110.441 177.332C110.441 178.751 110.092 180.127 109.393 181.459C108.716 182.791 107.624 184.21 106.117 185.717L99.8286 192.006H110.212V195.151Z" fill="white"/>
</g>
<defs>
<radialGradient id="paint0_radial_242_2123" cx="0" cy="0" r="1" gradientUnits="userSpaceOnUse" gradientTransform="translate(-44.6147 263.999) rotate(-35.3672) scale(350.512 346.225)">
<stop offset="0" stop-color="#CDB37E" stop-opacity="0.4"/>
<stop offset="1" stop-color="#EFBC6F" stop-opacity="0"/>
</radialGradient>
<radialGradient id="paint1_radial_242_2123" cx="0" cy="0" r="1" gradientUnits="userSpaceOnUse" gradientTransform="translate(2.18976 187.469) rotate(-24.8717) scale(278.004 276.172)">
<stop offset="0" stop-color="#CDB37E"/>
<stop offset="1" stop-color="#CDB37E" stop-opacity="0"/>
</radialGradient>
<clipPath id="clip0_242_2123">
<rect width="264" height="264" fill="white"/>
</clipPath>
</defs>
</svg>
