<svg width="264" height="264" viewBox="0 0 264 264" fill="none" xmlns="http://www.w3.org/2000/svg">
<circle cx="132" cy="132" r="132" fill="#2C25A5"/>
<path d="M40.4697 142V113.756H51.3717V107.96H23.4957V113.756H34.4437V142H40.4697ZM70.006 131.144C70.006 124.796 64.854 119.736 58.368 119.736C51.928 119.736 46.776 124.796 46.776 131.144C46.776 137.446 51.928 142.598 58.368 142.598C64.854 142.598 70.006 137.446 70.006 131.144ZM64.44 131.144C64.44 134.41 61.726 137.17 58.368 137.17C55.056 137.17 52.342 134.41 52.342 131.144C52.342 127.924 55.056 125.164 58.368 125.164C61.726 125.164 64.44 127.924 64.44 131.144ZM80.733 153.638V140.574C82.481 142 84.551 142.598 86.805 142.598C93.245 142.598 98.397 137.446 98.397 131.144C98.397 124.796 93.245 119.736 86.805 119.736C84.551 119.736 82.481 120.334 80.733 121.76V120.15H75.075V153.638H80.733ZM80.733 130.914C80.871 127.832 83.539 125.164 86.805 125.164C90.117 125.164 92.831 127.924 92.831 131.144C92.831 134.41 90.117 137.17 86.805 137.17C83.539 137.17 80.871 134.548 80.733 131.42V130.914ZM141.21 142L132.746 127.556C137.852 126.682 140.612 123.048 140.612 117.942C140.612 111.962 136.84 107.96 129.894 107.96H116.094V142H122.12V127.878H126.214L134.448 142H141.21ZM122.12 122.082V113.756H129.986C132.792 113.756 134.586 115.366 134.586 117.988C134.586 120.564 132.792 122.082 129.986 122.082H122.12ZM166.411 142V120.15H160.753V121.76C158.959 120.334 156.889 119.736 154.681 119.736C148.241 119.736 143.089 124.796 143.089 131.144C143.089 137.446 148.241 142.598 154.681 142.598C156.935 142.598 159.005 142 160.753 140.574V142H166.411ZM160.753 131.144C160.753 134.41 158.039 137.17 154.681 137.17C151.369 137.17 148.655 134.41 148.655 131.144C148.655 127.924 151.369 125.164 154.681 125.164C158.039 125.164 160.753 127.924 160.753 131.144ZM179.897 125.578H185.693V120.15H179.897V112.744H174.239V120.15H170.789V125.578H174.239V142H179.897V125.578ZM211.081 132.938C211.173 132.386 211.219 131.742 211.219 131.144C211.219 124.98 206.665 119.736 200.225 119.736C193.279 119.736 188.909 125.072 188.909 131.282C188.909 137.676 193.969 142.598 200.547 142.598C204.273 142.598 207.769 140.942 209.747 138.136L205.883 135.054C204.595 136.756 202.479 137.492 200.501 137.492C197.235 137.492 195.073 135.606 194.429 132.938H211.081ZM194.613 128.798C195.441 126.452 197.557 124.888 200.179 124.888C202.893 124.888 205.193 126.59 205.515 128.798H194.613ZM238.196 142V107.96H232.538V121.76C230.744 120.334 228.674 119.736 226.466 119.736C220.026 119.736 214.874 124.796 214.874 131.144C214.874 137.446 220.026 142.598 226.466 142.598C228.72 142.598 230.79 142 232.538 140.574V142H238.196ZM232.538 131.144C232.538 134.41 229.824 137.17 226.466 137.17C223.154 137.17 220.44 134.41 220.44 131.144C220.44 127.924 223.154 125.164 226.466 125.164C229.824 125.164 232.538 127.924 232.538 131.144ZM107.069 197V193.918H91.1993L101.227 183.476C104.447 180.118 107.483 176.944 107.483 172.114C107.483 166.456 103.297 162.362 97.3173 162.362C91.7513 162.362 87.4733 165.858 86.9673 172.206H90.3713C90.8313 168.112 93.1773 165.444 97.1333 165.444C101.135 165.444 104.079 168.204 104.079 172.114C104.079 175.656 101.687 178.232 97.6393 182.418L86.5993 193.918V197H107.069ZM134.886 174.644C134.886 167.744 130.93 162.362 123.938 162.362C116.624 162.362 112.99 168.158 112.99 174.644V184.58C112.99 191.802 116.348 197.598 123.938 197.598C131.804 197.598 134.886 191.388 134.886 184.58V174.644ZM131.482 184.074C131.482 189.686 130.01 194.516 123.938 194.516C117.59 194.516 116.394 189.226 116.394 184.074V175.426C116.394 170.274 118.28 165.444 123.938 165.444C129.78 165.444 131.482 170.596 131.482 175.426V184.074ZM159.493 197V193.918H143.623L153.651 183.476C156.871 180.118 159.907 176.944 159.907 172.114C159.907 166.456 155.721 162.362 149.741 162.362C144.175 162.362 139.897 165.858 139.391 172.206H142.795C143.255 168.112 145.601 165.444 149.557 165.444C153.559 165.444 156.503 168.204 156.503 172.114C156.503 175.656 154.111 178.232 150.063 182.418L139.023 193.918V197H159.493ZM173.51 197V162.96H164.264V166.042H170.106V197H173.51Z" fill="white"/>
<path fill-rule="evenodd" clip-rule="evenodd" d="M70.9198 82.639C69.6832 83.5639 68.4069 82.5923 68.8635 81.0716L70.7369 74.8317L65.6931 70.9371C64.4716 69.994 64.9477 68.4087 66.4717 68.4087H72.767L74.7343 62.1334C75.2099 60.6164 76.7918 60.628 77.2638 62.1334L79.2311 68.4087H85.5263C87.0594 68.4087 87.5252 69.995 86.305 70.9371L81.2611 74.8317L83.1345 81.0716C83.5908 82.5913 82.3157 83.5645 81.0783 82.639L75.999 78.8401L70.9198 82.639Z" fill="#CDB37E"/>
<path fill-rule="evenodd" clip-rule="evenodd" d="M98.9198 82.639C97.6832 83.5639 96.4069 82.5923 96.8635 81.0716L98.7369 74.8317L93.6931 70.9371C92.4716 69.994 92.9477 68.4087 94.4717 68.4087H100.767L102.734 62.1334C103.21 60.6164 104.792 60.628 105.264 62.1334L107.231 68.4087H113.526C115.059 68.4087 115.525 69.995 114.305 70.9371L109.261 74.8317L111.135 81.0716C111.591 82.5913 110.316 83.5645 109.078 82.639L103.999 78.8401L98.9198 82.639Z" fill="#CDB37E"/>
<path fill-rule="evenodd" clip-rule="evenodd" d="M126.92 82.639C125.683 83.5639 124.407 82.5923 124.864 81.0716L126.737 74.8317L121.693 70.9371C120.472 69.994 120.948 68.4087 122.472 68.4087H128.767L130.734 62.1334C131.21 60.6164 132.792 60.628 133.264 62.1334L135.231 68.4087H141.526C143.059 68.4087 143.525 69.995 142.305 70.9371L137.261 74.8317L139.135 81.0716C139.591 82.5913 138.316 83.5645 137.078 82.639L131.999 78.8401L126.92 82.639Z" fill="#CDB37E"/>
<path fill-rule="evenodd" clip-rule="evenodd" d="M154.92 82.639C153.683 83.5639 152.407 82.5923 152.864 81.0716L154.737 74.8317L149.693 70.9371C148.472 69.994 148.948 68.4087 150.472 68.4087H156.767L158.734 62.1334C159.21 60.6164 160.792 60.628 161.264 62.1334L163.231 68.4087H169.526C171.059 68.4087 171.525 69.995 170.305 70.9371L165.261 74.8317L167.135 81.0716C167.591 82.5913 166.316 83.5645 165.078 82.639L159.999 78.8401L154.92 82.639Z" fill="#CDB37E"/>
<path fill-rule="evenodd" clip-rule="evenodd" d="M182.92 82.639C181.683 83.5639 180.407 82.5923 180.864 81.0716L182.737 74.8317L177.693 70.9371C176.472 69.994 176.948 68.4087 178.472 68.4087H184.767L186.734 62.1334C187.21 60.6164 188.792 60.628 189.264 62.1334L191.231 68.4087H197.526C199.059 68.4087 199.525 69.995 198.305 70.9371L193.261 74.8317L195.135 81.0716C195.591 82.5913 194.316 83.5645 193.078 82.639L187.999 78.8401L182.92 82.639Z" fill="#CDB37E"/>
</svg>
